<svg height="553" width="1103" xmlns="http://www.w3.org/2000/svg" xmlns:svg="http://www.w3.org/2000/svg" xmlns:xlink="http://www.w3.org/1999/xlink">
	<g class="countries" id="gCountries">
		<!-- Using data from ned/ne_50m_admin_0_countries.shp -->
		<g id="gNL1">
			<g id="gUSA">
				<path class="region US1 USA" d="M 45.9,218.5 45.5,218.9 44.7,218.5 44.7,216.9 44.3,216.5 45.1,215.7 44.7,214.9 45.5,214.9 47.1,215.7 47.1,216.1 47.9,216.9 48.3,216.9 47.5,217.7 46.7,217.7 45.9,218.5 Z" id="polyF1S227P1" />
				<path class="region US1 USA" d="M 41.9,213.3 41.5,213.3 41.5,212.9 41.1,212.9 41.9,212.9 41.9,213.3 Z" id="polyF1S227P2" />
				<path class="region US1 USA" d="M 43.1,212.9 43.5,212.9 43.5,212.5 43.9,212.9 44.3,212.9 44.3,213.3 44.7,213.3 44.3,213.3 44.3,213.7 43.1,213.7 43.1,213.3 42.7,213.3 42.7,212.9 42.3,212.9 42.3,212.5 42.7,212.5 43.1,212.9 Z" id="polyF1S227P3" />
				<path class="region US1 USA" d="M 40.7,211.7 41.5,212.1 42.3,212.1 41.9,212.5 41.5,212.1 40.7,212.1 40.7,211.7 Z" id="polyF1S227P4" />
				<path class="region US1 USA" d="M 39.1,211.3 39.5,211.7 38.7,211.7 38.7,211.3 38.3,211.7 38.3,211.3 38.3,211.7 37.9,211.7 37.9,211.3 37.5,210.9 37.9,210.5 38.3,210.5 39.1,211.3 Z" id="polyF1S227P5" />
				<path class="region US1 USA" d="M 31.9,210.1 31.5,210.1 31.5,209.7 31.9,209.7 31.9,209.3 32.3,209.3 31.9,209.7 31.9,210.1 Z" id="polyF1S227P6" />
				<path class="region US1 USA" d="M 34.3,209.7 33.1,209.7 32.7,209.3 33.1,208.9 34.3,208.9 34.3,209.7 Z" id="polyF1S227P7" />
				<path class="region US1 USA" d="M 271.1,201.7 271.5,201.7 271.1,201.7 Z" id="polyF1S227P8" />
				<path class="region US1 USA" d="M 271.9,201.7 271.9,201.3 271.9,201.7 Z" id="polyF1S227P9" />
				<path class="region US1 USA" d="M 272.7,201.3 272.3,201.3 272.3,200.9 272.7,201.3 Z" id="polyF1S227P10" />
				<path class="region US1 USA" d="M 273.5,201.3 273.1,201.3 273.5,201.3 273.9,200.9 273.5,201.3 Z" id="polyF1S227P11" />
				<path class="region US1 USA" d="M 274.3,200.9 274.3,200.9 Z" id="polyF1S227P12" />
				<path class="region US1 USA" d="M 274.7,200.5 274.7,200.5 Z" id="polyF1S227P13" />
				<path class="region US1 USA" d="M 275.5,199.7 275.1,200.5 275.1,200.1 275.5,199.7 275.5,199.3 275.9,199.3 275.5,199.7 Z" id="polyF1S227P14" />
				<path class="region US1 USA" d="M 270.3,195.7 270.3,196.1 270.3,195.7 269.9,195.7 270.3,195.7 Z" id="polyF1S227P15" />
				<path class="region US1 USA" d="M 270.3,195.7 270.3,195.3 269.9,195.3 270.3,195.3 270.3,195.7 Z" id="polyF1S227P16" />
				<path class="region US1 USA" d="M 224.3,196.9 223.5,194.9 223.5,193.7 223.5,194.9 224.3,196.5 224.3,196.9 Z" id="polyF1S227P17" />
				<path class="region US1 USA" d="M 223.5,193.3 224.3,191.7 224.7,191.7 223.9,192.5 223.5,193.3 Z" id="polyF1S227P18" />
				<path class="region US1 USA" d="M 276.3,193.3 276.3,193.7 275.9,192.9 275.5,192.1 275.5,191.7 275.5,192.1 276.3,193.3 Z" id="polyF1S227P19" />
				<path class="region US1 USA" d="M 224.7,191.3 225.1,190.9 224.7,191.3 Z" id="polyF1S227P20" />
				<path class="region US1 USA" d="M 225.5,190.5 225.9,190.5 226.3,190.1 226.7,190.1 226.3,190.5 225.5,190.5 Z" id="polyF1S227P21" />
				<path class="region US1 USA" d="M 230.7,187.7 231.5,186.9 230.7,187.7 Z" id="polyF1S227P22" />
				<path class="region US1 USA" d="M 240.7,186.5 239.9,186.5 239.9,186.1 240.7,186.1 240.7,186.5 Z" id="polyF1S227P23" />
				<path class="region US1 USA" d="M 261.9,186.1 261.1,186.1 261.9,186.1 261.9,185.7 262.3,185.7 261.9,186.1 Z" id="polyF1S227P24" />
				<path class="region US1 USA" d="M 249.5,186.1 249.5,185.7 249.5,186.1 Z" id="polyF1S227P25" />
				<path class="region US1 USA" d="M 249.9,185.7 249.5,185.7 249.9,185.3 249.5,184.9 249.9,184.9 249.9,185.7 Z" id="polyF1S227P26" />
				<path class="region US1 USA" d="M 248.7,184.9 248.3,184.9 248.3,184.5 248.7,184.5 248.7,184.9 Z" id="polyF1S227P27" />
				<path class="region US1 USA" d="M 250.7,184.5 250.3,184.5 249.9,184.1 250.7,184.5 Z" id="polyF1S227P28" />
				<path class="region US1 USA" d="M 251.9,184.1 251.9,184.5 251.5,184.5 251.1,184.1 251.9,184.1 Z" id="polyF1S227P29" />
				<path class="region US1 USA" d="M 272.3,182.1 272.3,182.9 272.3,182.1 Z" id="polyF1S227P30" />
				<path class="region US1 USA" d="M 159.5,176.5 159.1,176.5 159.1,176.1 158.7,175.7 159.5,176.5 Z" id="polyF1S227P31" />
				<path class="region US1 USA" d="M 156.3,175.3 155.9,175.3 155.9,174.9 156.3,175.3 Z" id="polyF1S227P32" />
				<path class="region US1 USA" d="M 159.5,174.5 159.5,174.9 159.1,174.9 159.1,174.5 158.7,174.5 159.5,174.5 Z" id="polyF1S227P33" />
				<path class="region US1 USA" d="M 154.3,172.9 154.3,173.3 153.9,172.9 154.7,172.9 154.3,172.9 Z" id="polyF1S227P34" />
				<path class="region US1 USA" d="M 153.5,172.9 153.1,172.9 153.1,172.5 153.5,172.5 153.5,172.9 Z" id="polyF1S227P35" />
				<path class="region US1 USA" d="M 154.7,172.5 155.5,172.9 155.9,172.5 155.9,172.9 154.7,172.9 154.7,172.5 Z" id="polyF1S227P36" />
				<path class="region US1 USA" d="M 287.1,170.9 286.7,170.9 286.7,170.5 287.1,170.5 287.1,170.9 Z" id="polyF1S227P37" />
				<path class="region US1 USA" d="M 287.5,170.9 287.5,170.5 288.3,170.1 287.5,170.9 Z" id="polyF1S227P38" />
				<path class="region US1 USA" d="M 289.5,169.3 289.1,169.3 289.5,169.3 Z" id="polyF1S227P39" />
				<path class="region US1 USA" d="M 290.3,168.9 289.9,169.3 289.9,168.9 290.3,168.9 290.3,168.1 290.7,168.1 290.3,167.7 290.3,167.3 290.7,167.7 290.7,168.5 290.3,168.9 Z" id="polyF1S227P40" />
				<path class="region US1 USA" d="M 289.9,167.3 289.9,166.9 289.9,167.3 Z" id="polyF1S227P41" />
				<path class="region US1 USA" d="M 291.1,160.9 290.7,160.9 291.5,159.7 291.5,160.5 291.1,160.9 Z" id="polyF1S227P42" />
				<path class="region US1 USA" d="M 294.7,155.3 294.3,156.1 294.3,155.7 294.7,155.3 Z" id="polyF1S227P43" />
				<path class="region US1 USA" d="M 294.3,152.9 294.3,152.5 294.7,152.5 294.7,152.9 294.3,152.9 Z" id="polyF1S227P44" />
				<path class="region US1 USA" d="M 299.5,151.3 299.5,151.7 299.9,151.7 300.3,151.3 301.5,151.3 299.9,151.7 299.5,152.1 298.7,152.1 297.5,152.5 295.9,152.5 295.5,152.9 295.5,152.5 295.1,152.5 295.1,152.9 295.1,152.1 295.9,152.1 295.9,151.7 295.9,152.1 296.3,151.7 298.7,151.7 299.9,150.9 300.3,150.9 299.9,151.3 299.5,151.3 Z" id="polyF1S227P45" />
				<path class="region US1 USA" d="M 307.5,150.5 306.7,150.5 307.1,150.5 307.1,150.1 307.1,150.5 307.5,150.5 Z" id="polyF1S227P46" />
				<path class="region US1 USA" d="M 305.5,150.1 304.7,150.5 305.1,150.1 305.5,150.1 Z" id="polyF1S227P47" />
				<path class="region US1 USA" d="M 303.1,150.1 303.1,149.7 303.1,150.1 Z" id="polyF1S227P48" />
				<path class="region US1 USA" d="M 303.5,150.1 303.1,150.1 303.1,149.7 303.5,149.7 303.5,149.3 303.5,150.1 Z" id="polyF1S227P49" />
				<path class="region US1 USA" d="M 311.5,141.7 311.1,141.7 311.1,141.3 311.5,141.7 Z" id="polyF1S227P50" />
				<path class="region US1 USA" d="M 312.7,141.3 312.3,141.3 312.3,140.9 312.7,140.9 312.7,141.3 Z" id="polyF1S227P51" />
				<path class="region US1 USA" d="M 145.9,132.5 145.5,132.5 145.5,132.1 145.9,132.5 Z" id="polyF1S227P52" />
				<path class="region US1 USA" d="M 147.1,131.7 147.1,132.1 147.1,131.7 146.7,132.1 146.7,131.7 147.1,131.7 Z" id="polyF1S227P53" />
				<path class="region US1 USA" d="M 146.7,131.3 146.7,130.9 146.7,131.3 Z" id="polyF1S227P54" />
				<path class="region US1 USA" d="M 146.7,129.7 146.7,130.1 146.7,129.7 147.1,130.1 146.7,130.1 146.7,129.7 146.3,129.7 146.3,129.3 145.9,129.3 146.3,129.3 146.3,128.9 146.7,128.9 146.7,129.3 146.3,129.3 146.7,129.3 146.7,129.7 Z" id="polyF1S227P55" />
				<path class="region US1 USA" d="M 145.9,128.9 145.5,128.9 145.5,128.5 145.9,128.5 145.9,128.9 Z" id="polyF1S227P56" />
				<path class="region US1 USA" d="M 145.1,128.5 145.5,128.5 144.7,128.5 144.7,128.1 145.1,128.1 145.1,128.5 Z" id="polyF1S227P57" />
				<path class="region US1 USA" d="M 145.9,128.1 145.5,128.1 145.5,127.7 145.9,128.1 Z" id="polyF1S227P58" />
				<path class="region US1 USA" d="M 231.5,126.9 231.9,127.3 231.9,127.7 232.7,127.7 234.3,128.1 234.7,128.5 235.5,128.5 235.9,128.1 237.5,128.1 238.7,128.9 238.7,129.3 239.1,129.3 239.1,128.9 239.5,128.9 239.9,129.3 240.3,129.3 241.1,129.7 242.3,129.7 243.1,129.3 243.5,129.3 243.9,129.7 245.9,129.7 246.3,130.1 248.3,130.1 248.7,129.7 249.5,129.7 250.3,129.3 251.9,129.3 252.3,129.7 253.1,129.7 256.3,131.3 257.1,131.3 258.3,132.1 259.9,132.5 261.1,133.3 261.9,133.3 261.9,134.1 262.7,134.9 263.1,134.9 263.1,134.5 264.3,134.5 263.9,134.5 263.9,134.9 264.3,134.9 264.3,135.7 264.7,135.7 264.7,136.1 265.1,135.7 265.5,135.7 265.9,136.1 265.9,136.9 266.3,136.9 269.1,138.1 269.1,139.3 269.5,140.1 269.5,140.9 269.9,141.7 269.9,142.9 270.3,143.7 269.9,143.7 269.5,144.5 269.5,145.3 269.1,146.1 269.1,146.5 268.7,146.5 267.9,147.3 267.5,147.3 267.1,147.7 267.1,148.5 267.9,149.3 269.1,149.3 269.9,148.9 270.7,148.9 272.7,147.7 273.5,147.7 274.7,147.3 275.9,147.3 276.7,146.9 277.5,146.9 279.1,146.1 279.5,146.1 279.9,145.7 279.9,145.3 279.5,145.3 279.5,144.1 279.1,143.7 280.3,143.7 280.7,143.3 286.3,143.3 287.5,142.1 288.3,141.7 288.3,141.3 288.7,141.3 289.5,140.9 290.7,139.7 291.5,139.7 291.9,139.3 302.7,139.3 303.1,138.5 303.9,138.5 303.9,138.1 304.3,138.1 304.3,138.5 304.7,138.5 304.7,138.1 305.1,138.1 305.1,137.7 306.3,136.5 306.3,135.3 306.7,134.9 307.1,134.9 307.1,134.1 308.3,133.3 308.3,132.9 309.5,131.7 310.3,131.7 310.3,132.5 311.5,132.5 311.9,132.1 313.1,132.1 313.9,132.9 313.9,136.9 314.3,137.3 315.1,137.3 315.1,138.5 315.5,138.5 315.5,138.9 315.5,138.5 315.9,138.5 315.9,138.9 316.3,138.9 316.3,139.3 315.9,139.3 315.9,139.7 316.3,139.7 315.9,140.1 314.7,140.1 314.7,140.5 313.9,140.5 313.5,140.9 313.1,140.9 312.7,140.5 312.7,140.9 311.9,140.9 311.9,141.3 310.7,141.3 311.1,140.9 311.1,140.5 310.7,140.9 310.3,140.9 310.3,142.1 309.1,142.1 309.1,142.5 308.3,142.5 308.3,142.1 308.3,142.5 307.9,142.9 307.9,142.5 307.9,142.9 307.5,142.9 307.5,142.5 307.1,142.9 306.7,142.9 306.3,143.3 306.7,143.3 305.5,144.1 304.7,145.3 304.7,146.1 305.1,146.5 305.5,146.5 304.7,146.5 304.7,146.9 304.3,146.9 303.9,147.3 304.3,147.3 305.5,148.1 305.1,148.5 305.5,148.5 305.5,148.9 305.9,149.3 306.3,149.3 306.7,148.9 307.1,148.9 307.1,148.1 306.7,148.1 307.1,148.1 307.5,148.5 307.5,149.3 305.9,149.7 305.1,149.7 305.1,149.3 304.3,149.7 303.9,149.7 303.5,150.1 303.5,149.3 303.9,149.3 303.1,149.3 303.1,148.9 303.1,149.3 302.7,149.3 302.7,150.1 301.9,150.5 298.3,150.5 297.9,150.9 296.3,151.3 295.5,152.1 295.1,152.1 295.5,151.7 295.5,150.9 295.1,150.9 295.1,150.5 295.1,150.9 295.5,151.3 295.1,151.7 295.1,152.1 294.7,152.1 294.7,152.5 294.3,152.5 294.3,152.9 294.7,153.3 295.1,152.9 295.1,154.1 294.7,154.9 294.7,155.3 294.7,154.5 294.3,155.3 294.3,155.7 293.9,155.7 293.9,156.5 293.1,156.5 293.1,156.9 292.7,157.7 292.3,157.7 292.3,156.9 291.5,156.9 290.3,156.1 290.3,155.7 290.7,155.3 290.7,154.9 291.5,154.9 291.5,154.5 291.9,154.5 291.5,154.9 290.7,154.9 290.7,155.3 290.3,155.3 290.3,156.5 290.7,156.5 290.7,157.3 291.1,157.7 291.5,158.1 291.9,158.1 291.9,158.5 291.5,158.5 291.5,158.9 291.9,158.9 291.9,159.3 291.5,159.3 291.5,159.7 291.1,159.7 291.1,160.1 290.7,160.5 290.3,162.1 289.5,162.1 289.5,162.9 289.1,163.3 289.1,161.7 289.5,161.3 289.9,161.3 289.9,160.5 289.5,160.5 289.5,160.1 289.1,160.1 289.5,159.7 289.1,159.7 289.5,159.3 289.1,159.7 288.7,159.7 287.9,158.9 288.3,158.9 288.3,158.5 288.7,158.9 289.1,158.9 288.7,158.5 288.3,158.5 288.3,158.1 287.9,158.1 287.9,158.5 287.9,158.1 288.3,158.1 288.3,157.7 287.9,157.7 288.3,157.7 288.7,157.3 288.3,157.3 288.3,156.5 289.5,156.5 289.1,156.5 289.1,156.1 289.5,156.1 289.1,156.1 289.1,155.7 288.7,155.7 288.7,156.1 288.3,156.5 288.3,156.1 288.3,156.5 287.9,156.5 287.9,156.1 287.9,156.5 287.5,156.5 287.5,156.9 287.1,156.9 287.5,156.9 287.5,157.3 287.1,157.3 287.5,157.7 287.5,158.1 287.1,158.5 287.5,158.9 287.5,159.3 287.9,159.3 287.1,159.3 287.1,158.9 286.7,158.9 287.9,160.1 287.9,160.5 287.1,159.7 286.7,159.7 286.3,159.3 286.3,159.7 285.9,159.7 285.9,159.3 285.1,159.3 285.1,158.9 285.5,158.5 285.9,158.5 285.9,157.7 285.9,158.1 285.1,158.9 285.1,159.7 285.5,159.3 285.9,159.3 286.3,160.1 287.1,160.1 287.1,160.5 287.5,160.5 287.9,160.9 288.3,160.9 287.9,161.3 287.9,161.7 287.5,161.7 286.3,160.9 285.9,160.1 285.5,160.1 286.7,161.3 287.1,161.3 287.1,161.7 287.9,161.7 287.9,162.1 288.3,162.1 288.3,162.5 287.5,162.5 287.9,162.9 287.5,162.9 286.7,162.1 287.9,163.3 287.9,163.7 287.5,163.7 287.5,163.3 287.1,163.3 287.1,162.9 286.7,162.9 285.9,162.5 285.1,162.5 285.1,162.9 286.7,162.9 286.7,163.3 287.1,163.3 287.5,163.7 287.5,164.1 287.9,164.1 288.3,163.7 289.1,164.1 289.5,166.1 290.3,166.9 290.3,167.3 290.3,166.9 289.9,166.5 289.1,164.9 289.1,164.5 289.1,165.7 289.5,165.7 289.5,166.5 288.3,165.7 288.3,166.1 287.9,166.1 288.3,166.5 287.9,166.1 287.5,166.5 286.7,166.5 286.7,166.1 286.7,166.9 288.7,166.9 288.7,167.7 289.1,167.7 289.1,166.9 289.5,166.9 289.5,167.3 289.9,167.3 288.7,168.5 287.5,168.5 287.1,168.1 287.1,168.5 286.3,168.5 285.9,168.1 285.9,168.5 287.5,168.9 287.1,168.9 287.1,169.7 286.3,169.7 285.5,169.3 286.7,170.1 287.5,169.7 287.9,170.1 287.5,170.1 287.5,170.5 285.5,170.5 285.1,170.9 284.7,170.9 284.7,170.5 284.7,171.3 284.3,171.3 283.9,171.7 283.1,172.5 283.1,172.9 283.1,172.1 283.1,172.9 281.5,172.9 280.3,173.7 279.9,173.7 279.1,175.3 279.1,174.5 278.7,174.9 279.1,175.3 278.3,175.7 277.9,175.7 277.9,176.1 277.5,176.5 277.1,176.5 276.3,177.3 274.7,177.3 275.1,177.3 275.1,178.1 274.7,178.1 274.7,177.7 274.3,177.7 274.3,178.1 274.7,178.1 273.5,179.3 273.1,179.3 273.5,179.3 273.5,179.7 273.1,179.7 273.1,180.1 272.7,180.5 273.1,180.5 272.7,180.5 272.7,180.9 272.3,180.9 272.7,180.9 272.7,181.3 272.3,181.3 272.3,182.1 271.9,182.5 272.3,182.9 272.3,184.1 272.7,184.5 272.7,185.7 273.5,186.5 273.9,188.1 275.1,189.3 275.1,190.9 275.5,191.3 275.1,191.3 274.7,190.5 274.7,189.7 274.7,190.1 274.3,189.7 274.7,189.3 274.3,189.3 274.3,188.9 274.3,190.1 274.7,190.5 275.9,193.7 276.7,194.9 276.3,197.7 275.9,198.1 275.9,198.5 275.5,198.9 275.5,199.3 275.1,199.7 273.9,199.7 273.5,200.1 273.5,199.7 273.1,199.7 273.1,199.3 273.5,199.3 273.9,199.7 273.9,199.3 273.1,199.3 273.1,198.5 272.7,198.1 272.7,197.7 271.9,197.7 271.1,196.9 271.1,196.1 270.7,195.7 271.1,195.3 270.7,195.3 270.7,195.7 270.3,195.7 270.3,194.5 270.7,194.5 269.5,194.5 269.1,194.1 268.7,192.9 268.3,192.5 268.7,192.5 269.1,192.1 269.1,191.7 269.5,191.7 269.1,191.3 269.1,191.7 268.7,191.3 268.7,192.1 268.3,192.1 268.3,191.7 267.9,191.7 268.7,189.7 268.7,188.5 266.7,186.9 265.5,185.3 264.3,184.9 263.5,184.9 263.5,185.3 262.7,185.3 260.7,186.1 260.3,186.1 260.3,185.3 259.9,185.3 259.5,184.5 259.5,184.1 259.1,184.1 259.1,184.5 258.7,184.5 257.1,183.7 257.9,183.7 255.5,183.7 254.7,184.1 254.7,183.7 255.5,183.7 255.5,183.3 255.1,183.3 255.1,183.7 255.1,183.3 254.7,183.3 254.7,183.7 254.3,184.1 253.9,184.1 253.9,183.7 253.9,184.1 252.3,184.5 252.3,184.1 252.7,184.1 252.7,183.7 252.3,183.7 252.3,182.9 251.9,183.3 251.9,184.1 251.5,184.1 251.1,183.7 250.3,184.1 249.9,183.7 249.5,183.7 249.1,184.1 248.3,184.1 247.9,184.5 247.5,184.5 245.9,184.1 245.5,183.7 244.7,184.5 245.1,184.9 246.3,184.9 246.3,184.5 247.1,184.5 247.1,184.9 246.7,184.9 247.1,185.3 247.5,185.3 247.5,184.9 247.9,184.9 247.9,185.3 248.3,185.3 247.9,185.7 248.3,185.7 247.5,185.7 247.5,186.1 247.1,186.1 247.1,186.5 247.5,186.5 247.5,186.9 248.7,186.9 248.7,187.3 249.1,187.3 249.1,187.7 248.7,187.7 248.7,188.1 248.3,187.7 248.3,188.1 247.9,188.1 248.3,187.7 247.9,187.7 247.9,187.3 247.1,187.3 246.7,186.9 246.7,186.5 245.5,186.5 245.9,186.5 245.9,187.7 245.5,187.7 245.1,187.3 244.3,187.3 243.9,187.7 243.1,187.3 242.3,187.3 242.3,186.9 242.7,187.3 242.7,186.9 242.3,186.5 241.5,186.5 241.5,186.1 241.1,185.7 239.9,185.7 239.5,186.1 239.9,186.1 239.1,186.5 237.9,186.1 237.1,186.1 236.3,185.7 234.3,185.7 234.7,185.3 234.3,184.9 233.9,185.7 234.3,185.7 234.3,186.1 233.5,186.1 231.5,186.9 232.3,186.5 231.5,186.5 231.9,186.1 231.5,185.7 231.1,186.1 230.7,186.1 230.7,186.5 231.1,186.5 231.1,186.9 229.5,188.5 228.3,189.3 227.9,189.3 227.1,189.7 227.5,189.3 227.9,189.3 226.3,189.3 226.3,188.9 225.9,188.9 226.3,189.7 226.7,189.7 226.3,190.1 225.9,190.1 225.5,189.7 225.5,190.5 224.3,190.5 224.3,190.9 224.7,190.9 224.7,191.3 224.3,191.7 223.5,191.7 223.9,192.1 223.5,192.9 223.5,193.3 223.1,193.3 222.7,192.9 222.3,192.9 223.5,193.7 223.1,194.1 223.1,194.9 223.5,195.3 223.5,196.1 224.3,196.9 224.3,197.3 223.9,197.3 223.9,197.7 223.5,197.7 223.1,197.3 222.3,197.3 221.5,196.9 220.7,196.9 220.7,196.5 219.5,196.5 219.5,196.1 218.7,196.1 218.3,195.7 217.9,194.9 217.9,194.5 217.1,194.1 217.1,192.5 215.9,191.7 215.5,190.9 214.7,190.1 214.7,189.7 213.5,188.1 213.5,187.7 213.1,187.7 212.3,186.9 212.3,186.5 211.5,186.1 211.5,185.7 209.1,185.7 208.7,185.3 208.3,185.3 208.3,185.7 207.5,185.7 207.1,186.1 207.1,186.9 206.7,187.3 206.7,187.7 206.3,187.7 206.3,188.1 205.5,188.1 204.3,187.3 203.5,187.3 202.7,186.5 202.3,186.5 201.1,184.9 200.7,183.3 200.3,182.9 199.9,182.9 198.7,182.1 196.7,180.5 196.3,180.5 196.3,180.1 195.9,179.7 190.3,179.7 190.3,180.9 181.9,180.9 174.7,178.9 173.1,178.1 170.3,177.3 170.7,176.9 165.9,176.9 165.1,177.3 163.1,177.3 163.1,176.9 162.7,176.5 162.7,175.7 162.3,174.9 161.1,174.1 160.7,174.1 160.3,173.7 159.5,173.7 159.5,173.3 159.1,172.9 157.9,172.9 157.1,172.5 156.7,172.5 156.7,172.1 156.3,171.7 155.1,171.7 154.3,171.3 152.7,171.3 152.7,170.5 152.3,170.1 152.7,169.7 152.3,169.3 151.9,169.3 151.9,168.5 151.5,168.1 151.1,168.1 150.3,167.3 149.9,167.3 149.9,166.9 149.5,166.1 148.7,165.7 148.7,164.5 149.1,164.5 149.1,164.1 148.7,163.7 147.9,163.7 147.1,162.9 147.1,162.5 146.7,162.1 146.7,161.3 147.1,161.3 147.1,161.7 147.5,161.7 147.5,162.1 148.3,162.1 147.9,162.1 147.9,161.7 147.5,161.3 147.5,160.9 147.1,160.9 147.5,160.5 149.9,160.5 148.7,160.5 148.3,160.1 147.9,160.5 147.5,160.1 146.7,160.1 146.7,160.9 147.1,160.9 146.7,161.3 146.7,160.9 145.9,160.9 145.5,160.5 145.5,159.7 145.5,160.1 145.5,159.7 145.1,159.7 145.1,159.3 144.3,158.9 143.1,157.7 143.1,157.3 142.7,156.5 143.1,156.1 143.1,155.7 142.7,155.3 142.7,154.9 141.9,154.1 141.1,153.7 141.1,152.5 141.5,152.5 141.5,152.1 141.5,152.5 141.5,152.1 141.9,151.7 141.9,149.3 141.1,148.1 141.1,146.5 140.7,146.5 140.7,145.3 141.1,144.1 141.5,144.1 141.5,143.3 141.9,143.3 141.9,141.3 142.3,140.9 141.9,140.5 142.3,140.1 141.9,139.7 142.3,138.1 142.3,135.3 142.7,135.7 143.1,135.7 143.9,135.3 143.9,135.7 144.7,135.7 144.3,135.7 143.9,135.3 141.9,135.3 142.3,134.9 142.3,134.1 142.3,134.9 142.7,134.5 142.7,134.1 142.3,134.1 141.9,133.7 142.7,133.3 142.3,133.3 142.3,132.9 141.9,132.9 141.9,133.3 141.9,132.9 141.5,132.5 141.5,131.7 141.1,130.9 140.7,130.5 140.3,130.5 140.3,129.3 139.9,128.9 140.3,128.9 141.1,129.3 141.9,129.3 142.3,129.7 145.9,129.7 146.3,130.1 146.3,130.5 145.9,130.9 145.9,130.5 145.1,131.3 145.1,131.7 144.7,132.1 145.1,132.1 145.5,131.7 145.1,131.7 145.9,130.9 146.3,130.9 146.7,130.5 146.7,130.1 146.7,130.9 146.3,130.9 146.3,131.3 146.7,131.3 146.7,132.1 146.3,132.1 145.9,132.5 145.9,132.1 145.5,132.1 145.5,132.5 145.1,132.5 145.9,132.5 146.3,132.9 146.3,132.5 146.7,132.5 146.7,132.1 147.1,132.1 147.1,130.5 147.5,130.5 147.5,129.7 147.1,129.7 147.1,129.3 147.1,129.7 146.7,129.7 146.7,129.3 147.1,129.3 146.7,128.9 146.3,128.9 146.3,128.5 146.7,128.5 146.7,127.7 146.3,127.7 146.3,127.3 145.9,126.9 230.3,126.9 230.3,125.7 231.1,126.1 231.5,126.1 231.1,126.1 231.5,126.5 231.5,126.9 Z" id="polyF1S227P59" />
				<path class="region US1 USA" d="M 1069,119.7 1068,119.3 1067,118.9 1067,118.9 1068,118.9 1068,119.3 1068,119.3 1069,119.7 1069,119.7 Z" id="polyF1S227P60" />
				<path class="region US1 USA" d="M 1082,118.5 1082,118.1 1082,118.5 1082,118.5 Z" id="polyF1S227P61" />
				<path class="region US1 USA" d="M 1083,118.5 1082,118.5 1082,118.1 1083,118.1 1083,118.5 Z" id="polyF1S227P62" />
				<path class="region US1 USA" d="M 1077,118.9 1077,118.9 1077,118.5 1077,118.5 1077,118.5 1076,118.1 1078,118.1 1078,118.5 1078,118.5 1078,118.9 1077,118.9 Z" id="polyF1S227P63" />
				<path class="region US1 USA" d="M 1080,118.5 1080,118.9 1078,118.9 1078,118.5 1079,118.5 1079,118.1 1080,118.1 1080,118.1 1080,118.5 Z" id="polyF1S227P64" />
				<path class="region US1 USA" d="M 1081,118.1 1081,118.5 1082,118.5 1081,118.5 1081,118.9 1080,118.9 1080,118.5 1081,118.5 1081,117.7 1081,117.7 1081,118.1 Z" id="polyF1S227P65" />
				<path class="region US1 USA" d="M 1066,118.1 1066,118.1 1066,117.7 1066,118.1 Z" id="polyF1S227P66" />
				<path class="region US1 USA" d="M 1070,118.1 1069,118.1 1069,117.7 1070,117.7 1070,118.1 Z" id="polyF1S227P67" />
				<path class="region US1 USA" d="M 1083,117.7 1082,117.7 1083,117.7 Z" id="polyF1S227P68" />
				<path class="region US1 USA" d="M 1063,118.1 1062,118.1 1064,117.3 1064,118.1 1063,118.1 Z" id="polyF1S227P69" />
				<path class="region US1 USA" d="M 1090,117.3 1091,117.7 1092,117.7 1089,117.7 1089,117.3 1090,117.3 Z" id="polyF1S227P70" />
				<path class="region US1 USA" d="M 1094,116.9 1093,116.9 1094,116.9 1094,116.5 1094,116.9 1094,116.9 Z" id="polyF1S227P71" />
				<path class="region US1 USA" d="M 1087,117.7 1085,117.7 1086,117.7 1087,117.3 1088,117.3 1088,116.9 1088,116.9 1088,116.5 1089,116.5 1089,116.9 1089,117.3 1088,117.7 1087,117.7 Z" id="polyF1S227P72" />
				<path class="region US1 USA" d="M 1052,116.9 1051,116.5 1051,116.5 1051,116.5 1052,116.1 1052,116.1 1052,116.5 1052,116.9 Z" id="polyF1S227P73" />
				<path class="region US1 USA" d="M 1099,116.1 1099,116.1 1099,115.7 1100,115.7 1100,116.1 1099,116.1 Z" id="polyF1S227P74" />
				<path class="region US1 USA" d="M 2.7,115.3 1.9,115.3 2.7,115.3 Z" id="polyF1S227P75" />
				<path class="region US1 USA" d="M 1049,114.9 1050,114.9 1051,115.3 1050,115.3 1049,115.7 1048,114.9 1048,114.9 1049,114.9 Z" id="polyF1S227P76" />
				<path class="region US1 USA" d="M 7.9,113.7 7.1,114.1 6.7,114.1 5.9,114.9 4.3,115.3 4.7,115.3 4.7,114.9 5.1,114.9 5.1,114.5 5.5,114.5 5.5,114.1 6.3,114.1 6.7,113.7 6.7,113.3 7.1,113.3 7.5,112.9 7.9,112.9 8.3,113.3 8.3,113.7 7.9,113.7 Z" id="polyF1S227P77" />
				<path class="region US1 USA" d="M 13.1,112.5 13.5,112.1 13.5,112.5 13.1,112.5 Z" id="polyF1S227P78" />
				<path class="region US1 USA" d="M 11.9,112.1 12.7,112.1 12.7,111.7 13.1,112.1 12.3,112.5 13.1,112.5 12.7,112.5 12.7,112.9 12.3,112.9 11.9,113.3 11.1,113.3 10.3,113.7 9.5,113.7 9.1,114.1 8.7,114.1 8.3,113.7 9.1,113.7 9.5,113.3 10.3,113.3 10.7,112.9 10.7,112.5 11.1,112.5 11.5,112.9 11.5,112.5 10.7,112.5 10.7,112.1 10.3,112.1 10.7,112.1 10.7,111.7 11.9,111.7 11.9,112.1 Z" id="polyF1S227P79" />
				<path class="region US1 USA" d="M 14.3,111.3 14.3,111.7 13.9,111.7 13.5,111.3 13.9,111.3 13.9,110.9 14.3,110.9 14.7,111.3 14.3,111.3 Z" id="polyF1S227P80" />
				<path class="region US1 USA" d="M 15.1,111.3 15.1,110.9 15.9,110.9 15.5,111.3 15.1,111.3 Z" id="polyF1S227P81" />
				<path class="region US1 USA" d="M 24.3,110.5 23.5,110.5 23.5,110.1 24.3,110.1 24.3,110.5 Z" id="polyF1S227P82" />
				<path class="region US1 USA" d="M 25.1,109.3 25.1,108.9 24.7,108.9 25.1,108.5 25.5,108.5 25.5,108.9 25.1,109.3 Z" id="polyF1S227P83" />
				<path class="region US1 USA" d="M 21.5,108.9 21.9,109.3 22.7,109.3 22.7,109.7 21.9,109.3 21.5,109.7 19.5,109.7 19.5,110.1 19.1,110.1 18.7,110.5 17.5,110.5 17.5,110.1 17.1,110.1 17.5,109.7 17.9,109.7 18.3,108.9 19.5,108.9 20.3,108.5 21.5,108.5 21.5,108.9 Z" id="polyF1S227P84" />
				<path class="region US1 USA" d="M 34.3,108.9 33.9,108.9 33.9,108.5 34.3,108.5 34.3,108.9 Z" id="polyF1S227P85" />
				<path class="region US1 USA" d="M 33.9,108.1 33.9,108.5 33.5,108.5 33.5,108.1 33.9,108.1 Z" id="polyF1S227P86" />
				<path class="region US1 USA" d="M 119.9,108.5 120.3,108.9 119.5,108.9 119.5,108.5 119.1,108.5 119.1,107.7 119.5,107.7 119.5,108.1 119.9,108.5 Z" id="polyF1S227P87" />
				<path class="region US1 USA" d="M 32.7,108.1 31.9,108.9 31.5,108.9 31.9,108.5 31.9,108.1 32.3,108.1 32.3,107.7 32.7,107.7 32.7,108.1 Z" id="polyF1S227P88" />
				<path class="region US1 USA" d="M 115.1,108.9 115.9,108.9 115.9,109.3 115.5,109.7 114.7,108.9 114.3,108.9 114.3,108.5 113.9,108.1 113.5,108.1 113.5,107.7 113.9,107.7 114.3,108.1 114.7,108.1 114.7,108.5 115.1,108.5 115.1,108.9 Z" id="polyF1S227P89" />
				<path class="region US1 USA" d="M 31.1,107.7 30.7,107.7 31.1,107.7 Z" id="polyF1S227P90" />
				<path class="region US1 USA" d="M 30.3,107.7 30.7,107.3 30.7,107.7 30.3,107.7 30.7,108.1 29.9,108.1 29.5,107.7 29.9,107.3 30.3,107.3 30.3,107.7 Z" id="polyF1S227P91" />
				<path class="region US1 USA" d="M 113.9,106.9 113.9,107.3 113.5,107.3 113.1,107.7 112.7,107.7 112.7,106.9 113.9,106.9 Z" id="polyF1S227P92" />
				<path class="region US1 USA" d="M 45.9,106.1 45.1,106.1 45.5,105.7 45.9,105.7 45.9,106.1 Z" id="polyF1S227P93" />
				<path class="region US1 USA" d="M 121.1,107.3 120.7,107.3 120.7,107.7 120.3,108.1 119.9,108.1 119.9,107.7 119.5,107.7 119.5,107.3 119.5,107.7 119.1,107.7 118.7,108.1 118.3,108.1 118.3,107.3 118.7,107.3 118.7,106.9 119.1,106.1 119.9,105.7 120.3,105.7 120.3,106.1 120.7,106.5 121.1,106.5 121.1,107.3 Z" id="polyF1S227P94" />
				<path class="region US1 USA" d="M 113.1,104.5 114.3,104.5 114.3,104.9 114.7,104.9 114.7,105.3 114.3,105.3 115.5,105.7 115.9,106.1 116.3,106.1 116.3,106.5 117.1,106.9 117.1,107.3 117.1,106.9 116.3,106.9 115.9,107.3 117.1,107.3 117.5,107.7 117.1,107.7 117.1,108.1 117.9,108.1 117.9,109.3 117.5,109.7 116.7,108.9 116.3,108.9 115.9,108.5 115.9,108.1 115.5,108.1 115.9,108.5 115.5,108.5 114.7,107.7 114.3,107.7 114.7,107.3 114.7,106.9 113.9,106.9 113.9,106.5 112.7,106.5 112.7,106.1 113.9,106.1 113.9,105.7 113.5,105.3 113.1,105.7 112.3,105.7 113.1,105.3 113.1,104.5 Z" id="polyF1S227P95" />
				<path class="region US1 USA" d="M 115.5,104.9 115.1,104.9 114.7,104.5 115.1,104.1 115.9,104.1 115.9,104.9 115.5,104.9 Z" id="polyF1S227P96" />
				<path class="region US1 USA" d="M 117.5,105.3 117.5,105.7 116.7,105.7 116.3,105.3 115.5,105.3 115.5,104.9 115.9,104.9 116.7,104.1 117.5,104.9 117.5,105.3 Z" id="polyF1S227P97" />
				<path class="region US1 USA" d="M 48.7,104.1 48.3,104.5 48.3,104.1 48.7,103.7 49.1,103.7 49.1,104.1 48.7,104.1 Z" id="polyF1S227P98" />
				<path class="region US1 USA" d="M 49.9,104.1 49.5,104.1 49.5,103.7 50.3,103.7 50.3,104.1 49.9,104.1 Z" id="polyF1S227P99" />
				<path class="region US1 USA" d="M 2.3,103.7 3.5,103.7 3.1,104.1 2.7,104.1 2.3,103.7 Z" id="polyF1S227P100" />
				<path class="region US1 USA" d="M 115.5,104.1 115.1,104.1 115.1,103.3 115.9,103.3 115.9,103.7 115.5,104.1 Z" id="polyF1S227P101" />
				<path class="region US1 USA" d="M 111.9,102.9 111.9,103.3 112.3,103.3 112.3,103.7 111.9,104.1 111.9,105.3 111.1,105.3 111.1,104.5 111.5,104.1 111.1,104.1 110.7,103.7 110.7,102.9 111.9,102.9 Z" id="polyF1S227P102" />
				<path class="region US1 USA" d="M 113.5,102.5 114.7,102.5 114.7,102.9 115.1,102.9 114.7,103.3 114.7,103.7 114.3,103.7 113.9,103.3 113.9,102.9 113.9,103.3 114.3,103.7 114.3,104.1 112.7,104.1 112.7,103.3 111.9,102.5 113.5,102.5 Z" id="polyF1S227P103" />
				<path class="region US1 USA" d="M 53.5,102.1 53.1,102.1 53.1,102.5 52.3,102.5 52.7,102.1 53.9,102.1 53.5,102.1 Z" id="polyF1S227P104" />
				<path class="region US1 USA" d="M 108.7,101.3 109.5,102.5 109.5,102.9 109.9,103.3 109.9,103.7 109.5,104.1 109.9,104.1 109.9,104.9 109.1,104.9 109.1,104.5 108.7,104.1 108.7,103.7 109.1,103.7 108.7,103.7 108.3,103.3 108.3,102.9 107.9,103.3 107.5,102.9 107.9,102.5 107.1,101.7 106.7,102.5 106.3,102.5 106.3,101.7 106.7,101.7 106.7,101.3 107.1,101.3 107.1,100.9 108.7,101.3 Z" id="polyF1S227P106" />
				<path class="region US1 USA" d="M 53.1,100.1 52.7,100.1 52.7,99.7 51.9,99.7 52.7,99.7 53.1,100.1 Z" id="polyF1S227P107" />
				<path class="region US1 USA" d="M 53.9,100.1 55.5,100.1 55.1,100.1 55.1,100.5 55.9,100.5 55.9,100.9 55.5,100.9 55.5,101.3 54.7,100.9 53.9,100.9 53.5,101.3 54.7,101.3 54.7,101.7 52.7,101.7 52.3,102.1 51.9,102.1 51.5,102.5 51.9,102.5 51.5,102.5 51.5,102.9 50.7,103.3 50.3,103.3 50.3,102.9 51.1,102.5 50.3,102.5 50.7,102.1 49.5,102.1 49.9,102.1 49.9,102.9 49.5,102.9 48.3,101.7 48.3,101.3 48.7,101.3 49.9,100.5 50.3,100.5 51.5,101.7 51.5,101.3 51.1,101.3 51.1,100.5 51.5,100.5 51.1,100.5 51.1,100.1 50.7,100.1 51.1,99.7 51.5,99.7 51.5,100.1 53.1,100.1 53.1,99.7 54.3,99.7 53.9,100.1 Z" id="polyF1S227P108" />
				<path class="region US1 USA" d="M 106.3,98.9 106.7,98.9 106.7,99.7 106.7,99.3 107.5,99.3 107.5,98.9 108.3,99.3 108.7,99.3 108.7,100.1 107.5,100.1 109.1,100.5 109.1,100.9 107.9,100.9 107.1,100.5 106.7,100.5 106.7,101.3 105.9,101.3 105.5,100.9 105.5,100.5 104.3,100.1 104.3,99.7 103.9,99.7 103.9,99.3 104.3,99.3 104.3,98.9 104.7,98.9 105.1,99.3 105.1,98.9 105.9,98.9 106.3,98.5 106.3,98.9 Z" id="polyF1S227P109" />
				<path class="region US1 USA" d="M 110.7,98.9 109.9,98.9 109.5,98.5 110.3,98.5 110.7,98.9 Z" id="polyF1S227P110" />
				<path class="region US1 USA" d="M 109.5,98.9 111.1,98.9 111.9,99.7 111.9,100.5 112.3,100.5 111.9,100.5 111.9,100.1 111.5,100.1 111.5,99.7 111.1,99.7 111.1,99.3 110.7,99.3 110.7,99.7 111.5,100.5 111.9,100.5 111.9,101.7 111.5,101.7 110.3,102.5 109.9,102.5 109.9,101.7 110.3,101.3 110.3,100.9 109.9,100.9 109.5,100.5 109.5,99.3 109.1,98.9 109.1,98.5 108.7,98.5 109.1,98.5 109.5,98.9 Z" id="polyF1S227P111" />
				<path class="region US1 USA" d="M 55.5,98.5 55.5,98.1 55.9,98.1 55.9,98.5 56.7,98.5 56.7,98.9 55.5,98.9 55.9,98.9 55.5,98.9 55.1,99.3 55.1,98.9 54.7,98.9 54.7,99.3 52.3,99.3 53.9,98.5 54.3,98.5 54.3,98.1 55.1,98.1 55.5,98.5 Z" id="polyF1S227P112" />
				<path class="region US1 USA" d="M 55.1,98.1 54.7,97.7 55.5,97.7 55.1,98.1 Z" id="polyF1S227P113" />
				<path class="region US1 USA" d="M 29.5,97.7 29.1,97.7 28.7,97.3 29.1,97.3 29.9,96.9 29.5,97.7 Z" id="polyF1S227P114" />
				<path class="region US1 USA" d="M 79.5,94.1 79.1,94.1 79.5,93.7 79.9,93.7 79.9,93.3 80.3,93.3 79.5,94.1 Z" id="polyF1S227P115" />
				<path class="region US1 USA" d="M 68.7,93.3 67.9,93.3 68.3,92.9 69.1,92.9 68.7,93.3 Z" id="polyF1S227P116" />
				<path class="region US1 USA" d="M 69.9,94.1 69.5,94.1 69.5,93.7 69.9,93.7 70.7,92.9 71.1,92.9 71.5,92.5 71.5,92.1 71.9,92.5 72.3,92.5 71.9,92.5 71.1,93.3 70.7,93.3 70.7,93.7 69.9,93.7 69.9,94.1 Z" id="polyF1S227P117" />
				<path class="region US1 USA" d="M 13.5,92.1 13.9,92.5 14.7,92.5 14.7,93.3 15.1,93.3 15.1,93.7 13.5,93.7 13.5,94.1 13.1,94.1 12.7,93.7 11.9,93.7 11.1,93.3 10.3,93.3 9.9,92.9 9.5,92.9 9.9,92.5 11.5,92.9 11.5,92.5 11.9,92.5 12.3,92.1 13.5,92.1 Z" id="polyF1S227P118" />
				<path class="region US1 USA" d="M 77.9,92.5 77.1,92.5 77.5,92.1 77.9,92.1 77.9,92.5 Z" id="polyF1S227P119" />
				<path class="region US1 USA" d="M 73.9,92.1 74.7,92.1 74.3,92.1 73.9,92.5 73.1,92.5 73.1,92.1 72.7,92.1 73.1,92.1 73.5,91.7 73.9,92.1 Z" id="polyF1S227P120" />
				<path class="region US1 USA" d="M 69.9,92.1 69.9,92.5 69.5,92.9 69.5,92.5 69.1,92.5 69.5,92.5 69.5,92.1 69.9,92.1 69.9,91.7 69.9,92.1 Z" id="polyF1S227P121" />
				<path class="region US1 USA" d="M 56.7,92.1 56.3,92.1 56.7,92.1 56.7,91.7 57.1,91.7 57.1,92.1 56.7,92.1 Z" id="polyF1S227P122" />
				<path class="region US1 USA" d="M 1093,92.1 1094,92.1 1094,92.5 1093,92.5 1092,91.7 1093,91.7 1093,92.1 Z" id="polyF1S227P123" />
				<path class="region US1 USA" d="M 69.1,90.9 68.7,90.9 68.7,90.5 69.1,90.5 69.1,90.9 Z" id="polyF1S227P124" />
				<path class="region US1 USA" d="M 1.806,82.63 2.3,82.9 3.1,82.9 3.5,83.3 5.5,83.3 5.5,83.7 3.5,83.7 3.1,84.1 2.7,84.1 2.7,84.5 2.7,84.1 2.3,84.1 2.3,83.7 1.9,83.7 1.806,83.47 Z M 1102,83.41 1101,83.7 1101,83.7 1101,83.3 1100,83.3 1100,82.9 1098,82.9 1097,83.3 1096,83.3 1096,82.9 1096,82.1 1097,82.1 1097,82.1 1097,82.5 1099,82.5 1099,82.1 1101,82.1 1101,82.5 Z" id="polyF1S227P125" />
				<path class="region US1 USA" d="M 13.5,74.5 13.9,74.1 14.3,74.1 13.9,74.1 13.5,74.5 Z" id="polyF1S227P126" />
				<path class="region US1 USA" d="M 44.7,60.1 45.9,60.1 47.1,59.3 47.9,59.7 48.7,59.7 48.3,60.1 49.5,60.1 49.9,60.5 50.7,60.1 55.9,60.1 55.9,60.5 55.5,60.5 55.1,60.9 55.9,60.9 56.3,61.3 57.5,60.9 57.5,61.3 56.7,61.3 59.1,61.7 59.5,61.3 65.1,61.3 66.3,61.7 69.5,61.7 69.5,62.1 74.3,62.1 74.7,62.5 76.7,62.5 77.5,62.9 79.1,62.9 79.9,62.5 83.5,62.5 85.1,62.9 85.9,62.9 86.3,63.3 88.3,63.7 90.3,63.7 90.3,92.5 92.7,92.5 93.5,92.9 93.9,92.5 96.3,92.5 95.9,92.9 95.9,93.3 96.3,93.3 96.7,93.7 97.5,93.7 97.5,94.1 97.9,94.5 98.7,94.5 99.1,94.9 99.5,94.9 100.3,95.7 100.7,95.7 100.7,96.1 101.1,96.5 101.1,96.9 102.3,96.1 103.9,96.1 104.3,95.7 104.3,94.9 104.7,94.9 104.7,94.5 105.9,94.5 106.3,94.1 107.9,94.1 108.7,94.9 108.3,94.9 108.7,95.7 109.5,95.7 109.9,96.1 110.3,96.1 110.3,96.5 110.7,96.5 110.7,96.9 111.5,96.9 111.9,97.3 112.3,97.3 113.1,98.1 113.5,98.1 113.5,98.5 114.3,99.3 114.7,99.7 115.1,99.7 115.5,100.1 115.5,100.5 116.3,100.9 116.3,101.3 117.1,102.1 116.7,102.1 117.5,102.5 117.9,102.5 117.5,102.5 117.5,102.9 117.9,102.9 118.3,103.3 118.3,103.7 119.5,103.7 119.9,104.1 120.3,104.1 120.7,104.5 121.5,104.5 122.7,105.3 123.9,105.3 123.9,106.1 123.5,106.1 123.5,106.9 123.9,107.3 123.9,107.7 123.1,108.5 123.1,108.9 122.3,109.3 121.5,109.3 120.7,108.1 121.1,107.7 121.5,107.7 121.1,107.3 121.1,106.1 120.3,105.7 120.7,105.3 119.9,105.7 119.1,105.7 118.3,106.1 118.3,106.5 117.9,106.9 117.5,106.9 117.1,106.5 117.9,105.7 118.3,104.9 119.1,104.9 117.9,104.9 117.9,104.5 117.1,104.5 117.1,104.1 116.7,104.1 116.7,103.7 116.3,103.7 116.3,103.3 115.9,103.3 115.5,102.9 115.1,102.9 115.1,102.5 115.5,102.5 113.5,102.1 113.5,101.7 112.7,100.5 113.9,100.5 114.3,100.9 113.1,100.1 113.1,99.7 114.3,99.7 113.1,99.7 112.7,100.1 112.3,100.1 112.3,99.7 111.9,99.3 111.5,99.3 111.5,98.5 111.9,98.1 111.9,97.7 111.9,98.1 111.5,98.1 111.1,98.5 111.1,98.9 110.7,98.5 109.5,98.5 109.5,98.1 108.7,97.7 108.7,97.3 107.5,95.7 107.5,95.3 107.1,95.3 107.5,95.7 107.1,95.7 107.5,96.1 107.9,97.7 108.3,98.1 108.3,98.9 107.9,98.5 107.1,98.5 106.7,98.1 105.9,98.1 105.9,97.7 105.5,96.9 106.3,96.9 105.5,96.9 105.1,96.5 105.1,96.1 105.1,97.3 104.7,97.3 104.7,96.9 103.9,96.9 103.9,96.5 102.7,96.5 102.3,96.9 103.9,96.9 103.9,97.3 104.3,97.3 104.3,97.7 105.1,97.7 105.1,98.1 105.5,98.1 105.5,98.5 104.3,98.5 103.9,98.9 103.5,98.5 100.7,97.7 100.7,97.3 100.3,97.3 99.9,96.9 99.5,96.9 99.5,96.5 98.7,96.1 97.9,96.1 97.5,95.7 96.7,95.7 94.7,94.9 93.9,94.9 93.9,94.5 94.7,94.5 94.7,93.7 95.1,93.3 95.5,93.7 95.5,94.5 95.5,94.1 95.9,94.1 95.9,93.7 96.3,93.7 95.5,93.7 95.1,93.3 94.7,93.3 93.9,93.7 93.5,94.1 90.7,94.1 89.1,93.7 89.5,93.3 89.1,92.9 89.1,93.3 85.5,93.3 84.3,92.9 82.7,93.3 80.7,93.3 80.7,92.9 79.5,92.9 79.1,92.5 78.3,92.5 79.1,91.3 77.9,92.1 75.5,92.1 75.5,91.7 75.9,91.7 75.9,91.3 74.3,91.3 74.3,90.9 73.9,91.3 73.1,91.3 73.5,90.9 73.9,90.9 73.1,90.9 73.1,90.1 74.3,90.1 73.9,89.7 73.1,90.1 72.3,90.1 71.9,90.5 69.1,90.5 69.1,90.1 69.5,89.7 69.1,90.1 67.5,90.1 68.3,90.1 67.9,90.5 67.9,90.9 67.1,90.9 67.9,91.3 68.3,91.3 67.9,91.7 67.1,91.7 69.1,91.7 69.1,92.1 68.3,92.1 68.3,92.9 67.9,92.9 67.5,93.3 67.1,93.3 66.7,93.7 66.3,93.7 65.9,93.3 65.1,93.3 64.7,92.9 64.7,93.3 64.3,93.3 64.3,93.7 63.9,94.1 63.9,93.7 63.5,93.7 63.5,94.1 62.7,94.1 63.1,94.1 63.1,94.5 61.9,94.5 61.5,94.9 61.1,94.9 61.1,94.5 61.1,94.9 60.7,95.3 59.9,95.3 59.9,95.7 56.7,95.7 57.5,94.9 58.7,94.9 59.5,94.1 58.7,94.5 57.1,94.1 57.9,92.9 58.3,92.9 58.7,92.5 58.7,90.9 59.9,90.9 60.3,90.5 61.5,90.1 61.9,90.1 61.9,90.5 65.5,90.5 63.9,90.5 63.1,90.1 62.7,89.7 63.1,89.7 63.9,88.9 64.7,88.9 63.5,88.9 63.1,89.3 62.3,89.3 61.5,89.7 61.1,89.3 59.5,89.7 59.1,90.1 58.3,90.1 57.9,90.5 57.5,90.5 57.5,91.3 56.7,91.3 55.9,91.7 55.9,92.1 55.5,92.5 53.5,92.5 53.9,92.5 54.3,92.9 54.7,92.9 54.7,93.3 54.3,93.7 53.1,93.7 53.5,94.1 53.1,94.5 52.3,94.5 52.7,94.1 52.3,94.1 51.5,94.5 51.9,94.5 51.5,94.9 51.1,94.9 50.3,95.3 50.3,95.7 49.9,96.1 51.1,96.1 51.5,96.5 52.3,96.5 52.7,96.9 52.3,97.3 51.9,97.3 51.5,97.7 51.1,97.7 50.7,98.1 50.3,98.1 50.3,98.5 49.9,98.5 49.9,98.9 49.5,98.9 48.7,99.3 47.5,99.3 46.7,100.1 45.9,100.1 45.9,100.5 45.5,100.5 45.1,100.9 44.3,100.9 44.3,101.3 43.1,101.3 43.1,102.1 42.7,102.5 41.9,102.5 40.7,103.3 40.3,102.9 40.3,103.3 39.9,103.3 39.9,103.7 38.3,103.7 38.3,104.1 38.7,104.1 37.1,104.1 36.7,104.5 37.1,104.5 37.5,104.9 37.1,105.3 36.7,105.3 36.7,104.9 35.9,105.7 33.9,106.1 33.1,106.9 33.1,106.1 32.3,106.1 32.3,106.5 31.5,106.5 31.1,106.9 30.3,106.9 29.9,107.3 29.5,106.9 29.5,107.3 28.7,107.3 27.9,107.7 27.9,106.9 28.7,106.9 27.1,106.9 27.1,107.3 26.3,108.1 25.5,108.1 25.5,108.5 24.7,108.5 24.7,108.1 24.3,108.1 24.3,107.7 24.3,108.5 23.9,108.5 23.5,108.9 23.1,108.5 22.7,108.5 22.7,108.9 22.3,108.9 22.3,109.3 21.9,109.3 21.9,108.9 22.3,108.9 22.3,108.1 23.5,108.1 23.5,107.7 24.3,107.7 25.5,106.5 27.1,105.7 29.5,105.7 29.1,105.7 29.1,106.1 29.5,106.1 29.9,106.5 29.9,106.1 31.5,106.1 30.7,105.7 30.7,105.3 31.5,104.5 31.9,104.5 33.1,103.7 34.7,103.3 35.5,102.9 35.9,103.3 36.3,103.3 36.3,102.5 36.7,102.1 37.1,102.1 37.5,101.7 37.5,101.3 38.3,101.3 38.7,100.9 39.9,100.9 39.5,100.9 39.5,100.5 39.1,100.5 39.5,100.1 39.5,99.3 39.9,98.9 40.7,98.9 39.9,98.9 39.9,98.1 41.5,97.3 41.1,97.3 41.9,96.1 41.1,96.9 38.3,97.7 37.5,97.7 37.1,97.3 37.1,96.9 36.7,96.9 37.1,96.5 38.3,96.5 37.5,96.5 37.1,96.1 36.7,96.1 36.7,96.5 35.9,96.5 35.9,98.1 35.1,98.1 33.9,96.9 33.1,96.5 33.1,96.9 31.9,96.9 31.1,96.1 29.9,96.9 28.3,96.9 28.3,97.3 26.7,97.7 25.9,97.7 27.1,96.9 26.7,96.9 26.7,96.5 27.1,96.1 26.3,96.1 25.9,95.7 26.3,95.3 26.7,95.3 26.7,94.5 25.5,92.9 24.7,92.5 25.9,91.3 26.3,91.3 25.5,91.3 25.5,91.7 24.3,92.5 23.9,92.5 24.3,92.5 24.7,92.9 24.7,93.3 23.9,93.3 23.5,93.7 22.3,93.7 21.1,94.1 20.3,94.1 19.5,93.7 19.5,93.3 17.9,92.5 17.1,92.5 16.7,92.1 16.7,91.7 15.9,91.7 17.1,91.3 17.1,90.5 17.5,90.5 17.9,90.9 19.1,90.9 19.1,91.3 18.7,91.7 19.1,91.7 19.9,90.9 20.3,90.9 20.7,91.3 20.7,91.7 21.9,90.9 20.3,90.9 20.7,90.5 21.1,90.5 20.7,90.5 19.9,90.9 18.7,90.9 17.9,90.5 16.3,90.5 17.1,90.1 17.5,90.1 16.7,90.1 16.7,89.7 15.9,89.7 16.3,89.3 15.9,89.3 15.9,90.1 15.1,90.1 15.1,89.7 14.7,89.3 14.3,89.3 14.3,88.9 14.7,88.9 14.3,88.5 13.9,88.5 13.5,88.9 13.5,88.5 14.3,88.1 14.7,88.1 13.9,88.1 13.5,87.7 15.1,87.7 14.7,87.3 14.7,86.9 15.5,86.5 16.3,85.7 17.9,85.7 17.5,85.7 17.5,85.3 18.3,85.3 18.3,84.9 17.9,85.3 17.5,85.3 17.5,84.1 18.7,84.1 18.3,83.7 20.3,83.3 20.7,83.7 21.1,83.7 21.1,84.1 20.7,84.1 21.1,84.1 21.5,83.7 21.9,84.1 22.7,84.1 23.1,83.7 23.5,83.7 25.1,82.9 25.1,82.5 25.9,82.5 25.9,82.9 27.5,82.9 28.3,82.5 29.9,82.1 29.9,81.7 29.5,81.3 29.5,80.9 28.7,80.1 27.9,79.7 29.1,79.7 29.9,78.9 29.5,78.9 29.1,78.5 28.7,78.5 27.9,78.9 27.1,78.9 26.7,78.5 26.7,78.9 25.5,78.9 23.9,80.1 23.5,80.1 23.5,79.7 22.3,79.3 22.7,79.7 23.1,79.7 22.3,79.7 21.5,79.3 19.1,79.3 17.9,79.7 15.5,79.7 13.1,79.3 12.3,78.9 12.7,78.5 12.3,78.1 11.5,77.7 11.1,77.7 12.3,77.7 12.7,77.3 13.5,77.3 11.9,76.9 9.5,76.9 7.9,76.5 7.9,76.1 7.5,76.1 7.9,75.7 7.9,76.1 9.1,75.7 9.5,75.3 11.1,75.3 11.5,74.9 12.3,74.9 12.7,74.5 15.1,74.5 14.3,74.1 14.7,74.1 15.5,73.7 16.7,73.7 17.9,73.3 21.1,73.3 20.3,73.3 20.7,73.3 20.7,73.7 20.3,73.7 20.3,74.1 19.9,74.5 21.1,74.9 26.7,74.9 27.5,74.1 28.3,74.1 28.7,74.5 29.1,74.5 29.1,74.1 27.5,73.7 26.7,74.1 25.5,72.9 24.7,72.9 24.3,72.5 24.7,72.1 25.5,72.1 26.3,73.3 27.5,73.7 31.5,73.7 31.5,73.3 30.3,73.3 29.5,72.9 27.5,73.3 27.1,72.9 26.7,72.9 26.7,72.5 27.1,72.1 26.3,71.7 25.1,72.1 24.7,71.7 24.3,72.1 23.9,71.7 21.5,71.7 20.7,71.3 20.3,70.5 19.5,70.1 15.9,68.9 13.9,68.5 13.1,68.1 12.3,68.1 11.5,67.7 12.7,67.7 13.1,67.3 13.5,66.5 13.1,66.1 19.5,66.1 22.3,64.9 22.3,64.5 22.7,64.9 22.7,64.1 23.1,63.7 25.9,62.1 26.3,62.1 26.7,61.7 26.7,62.1 25.9,62.1 25.9,62.5 26.3,62.5 26.7,62.1 29.1,61.7 30.3,61.7 30.3,61.3 32.3,60.9 31.9,61.3 32.3,61.3 31.9,61.7 32.7,61.7 32.7,62.1 32.7,61.3 34.3,61.3 33.1,61.3 32.3,60.9 31.9,60.9 34.3,60.1 34.7,60.1 34.7,60.5 34.3,60.5 36.7,60.5 36.7,60.1 39.5,60.1 41.5,58.9 43.1,58.5 42.7,58.9 45.9,59.3 45.5,59.7 43.9,60.1 44.7,60.1 Z" id="polyF1S227P127" />
			</g>
			
		</g>
	</g>
	<!-- 
	Generated using the Perl SVG Module V2.52
	by Ronan Oger
	Info: http://www.roitsystems.com/
 -->
</svg>